<svg version="1.2" baseProfile="tiny" xmlns="http://www.w3.org/2000/svg" width="52.6" height="72" viewBox="0 0 52.6 72" overflow="scroll"><g fill="#76B119"><path d="M51.9 1.2C51.3.4 50.3 0 49.2 0H3.4C1.5 0 0 1.5 0 3.4v62.9c0 1.9 1.5 3.4 3.4 3.4h1.1V72H16v-2.3h20.6V72H48v-2.3h1.1c1.9 0 3.4-1.5 3.4-3.4V3.5c.2-.8 0-1.7-.6-2.3zM2.3 3.4c0-.6.5-1.1 1.1-1.1h45.8c.4 0 .7.1.9.4.1.2.2.4.1.6v8.2h-48V3.4zm46.8 64h-3.4v2.3h-6.9v-2.3H13.7v2.3H6.9v-2.3H3.4c-.6 0-1.1-.5-1.1-1.1V13.7h48v52.6c0 .6-.5 1.1-1.2 1.1z"/><path d="M26.9 22.3c-10.1 0-18.3 8.2-18.3 18.3s8.2 18.3 18.3 18.3 18.3-8.2 18.3-18.3-8.3-18.3-18.3-18.3zm0 34.3c-8.8 0-16-7.2-16-16s7.2-16 16-16 16 7.2 16 16-7.2 16-16 16z"/><path d="M26.9 26.9c-7.6 0-13.7 6.2-13.7 13.7 0 1 .1 2.4 1.3 3.1 1.3.8 3-.2 4.9-1.3 3-1.8 5.2-2.9 6.7-1 2.6 3.2 6.3 5.2 9.3 5.2.7 0 1.3-.1 1.9-.3 1.3-.4 3.4-1.8 3.4-5.6-.1-7.7-6.3-13.8-13.8-13.8zM36.4 44c-2.1.7-5.9-.6-8.7-4.2-1.1-1.3-2.3-1.8-3.6-1.8-2.1 0-4.3 1.3-6 2.3-.8.5-2.1 1.2-2.6 1.3 0-.1-.1-.4-.1-1.1 0-6.3 5.1-11.4 11.4-11.4s11.4 5.1 11.4 11.4c.1 1.9-.5 3.1-1.8 3.5zM6.9 5.7h14.9V8H6.9zm17.1 0h5.7V8H24z"/></g></svg>