<svg version="1.2" baseProfile="tiny" xmlns="http://www.w3.org/2000/svg" width="116" height="72" viewBox="0 0 116 72" overflow="scroll"><g fill="#76B119"><path d="M58 72H3.2C.5 72 0 71.5 0 68.8V2.9C0 .6.6 0 2.9 0h110.4c2 0 2.7.7 2.7 2.6V69c0 2.4-.6 3-3.1 3H58zM2 69.9h111.9V2H2v67.9z"/><path d="M48.2 65.8h-39c-2.2 0-2.8-.6-2.8-2.9v-53c0-2.2.6-2.8 2.7-2.8h78.5c2.1 0 2.8.7 2.8 2.8V63c0 2-.7 2.7-2.7 2.7-13.2.1-26.3.1-39.5.1zM88.3 9.2h-80v52.9c0 1.8 0 1.8 1.8 1.8h78.2V9.2zm14.1 8.4h-6.8c-1.2 0-1.7-.5-1.6-1.6v-4.5c0-1 .5-1.5 1.5-1.5h14.1c1 0 1.5.5 1.5 1.5v4.7c0 1-.5 1.5-1.5 1.5-2.5-.1-4.8-.1-7.2-.1zm4.9 23.4h-1.4c-1.3.2-1.7-.5-1.4-1.6.1-.4.6-.9.9-.9 1.3-.1 2.5 0 3.8-.1 1.1 0 1 .6 1 1.3 0 .7 0 1.3-1 1.2-.6.1-1.3.1-1.9.1zm-9.9 0h-1.2c-1 .1-1.5-.1-1.5-1.3s.5-1.4 1.5-1.3c1.1.1 2.2 0 3.3 0 1 0 1.1.5 1.1 1.3s0 1.4-1.1 1.3h-2.1zm9.9 4.4h1.5c.9-.1 1.6 0 1.5 1.3 0 1.2-.6 1.3-1.5 1.3-1-.1-2.1-.1-3.1 0s-1.2-.4-1.2-1.3.3-1.4 1.2-1.3c.5.1 1 0 1.6 0zm2.9-11.3c-1.7 0-3.4.1-5-.1-.3 0-.7-.8-.7-1.3 0-.4.4-1.1.7-1.1 1.6-.1 3.3-.1 5-.1v2.6zm-.2-9.3c.6 2.2.4 2.4-1.7 2.4h-2.4c-.9 0-1.5 0-1.5-1.2 0-1.1.4-1.4 1.4-1.3 1.3.1 2.5 0 3.8 0 .2 0 .3.1.4.1zm-9.6-.1v2.5c-1.7 0-3.4.1-5.1-.1-.2 0-.5-.9-.6-1.4 0-.3.4-1 .7-1h5zm.1 20.7c0 .7.1 1.2 0 1.6-.1.4-.5.9-.8.9-1.4.1-2.7 0-4.1 0-.9 0-.9-.6-.8-1.2 0-.5-.2-1.3.7-1.3h5zm-2.9-11.3h-1.4c-1.5 0-1.7-.2-1.5-1.6.1-.3.6-.8.9-.8 1.1-.1 2.3 0 3.4 0 1-.1 1.5.1 1.5 1.3 0 1.1-.5 1.3-1.4 1.2-.5-.1-1-.1-1.5-.1z"/><path d="M52.1 12.9c-.6.8-.9 1.2-1.3 1.6L35.6 29.7l-22 22-.5.5c-.5.5-1.2.9-1.7.2-.2-.3 0-1.2.4-1.6 3-3.1 6.2-6.2 9.3-9.3 9.5-9.4 18.9-18.9 28.4-28.3.3-.3.5-.7.8-.7.6-.1 1.1.2 1.8.4zM11.9 42.1c-.3-.8-.6-1.3-.5-1.8 0-.3.5-.6.8-.9C21 30.7 29.8 21.9 38.6 13c.1-.1.2-.3.3-.3.5-.1 1.2-.4 1.5-.2.7.5.3 1.1-.2 1.6l-8.1 8.1-18.6 18.6c-.3.4-.8.7-1.6 1.3zm18-28.9c-.3.4-.5.7-.8 1-5.3 5.3-10.6 10.6-15.8 15.9-.5.5-1.1 1-1.8.4-.7-.7-.2-1.2.3-1.7 5.3-5.3 10.6-10.7 16-15.9.3-.3.9-.4 1.3-.4.3-.1.5.4.8.7z"/></g></svg>