<svg version="1.2" baseProfile="tiny" xmlns="http://www.w3.org/2000/svg" width="41.4" height="72" viewBox="0 0 41.4 72" overflow="scroll"><g fill="#76B119"><path d="M27.3 64.5v5.8c0 1.2-.5 1.7-1.7 1.7-4.4 0-3.9.3-3.9-3.8v-3.3c-.7 0-1.2-.1-1.9-.1 0 1.8-.1 3.6 0 5.3.1 1.4-.5 1.9-1.9 1.9-4 0-3.7.1-3.7-3.6v-3.8c-2.3-.4-4.5-.6-6.6-1.1-1.9-.5-3.8-1.1-5.6-1.9-1.4-.5-2-1.7-2-3.2v-52c0-1.6.7-2.8 2.1-3.3C4.7 2.2 7.3 1.3 10 .8c8.4-1.3 16.7-1.1 25 .6.6.1 1.2.3 1.8.5 3.9 1.3 4.5 2.1 4.5 6.2v49.6c0 2.5-.6 3.7-3.1 4.4-2.7.9-5.6 1.4-8.3 2-.8.3-1.6.3-2.6.4zM39.1 57V9.2c0-4.3-.1-4.5-4.3-5.5-.1 0-.2 0-.3-.1C26.7 2 18.9 2 11 3c-2.4.3-4.8 1.1-7.2 1.7-.9.3-1.5.8-1.5 2v49.2c0 .3.2.7.2 1 .2 0 .3.1.4.1.1-2 1.4-2.5 3-2.3 1.9.2 4.4-.9 5 2.4.9-.3 1.9-.3 2.4-.8 1.5-1.5 3.2-1.8 5.1-1.7 1.4.1 2.8.1 4.2 0 2-.1 3.9.1 5.4 1.7 1 1 2.1.7 2.8-.6.2-.4.5-.9.8-.9 1.8-.1 3.5-.3 5.3-.1.7.3 1.2 1.3 2.2 2.3zM2.7 59.6c1 .4 2 1 3 1.1 4.1.6 8.1 1.4 12.2 1.6 6 .3 12 0 17.8-1.6 1-.3 1.9-.8 2.9-1.2-1.7-.2-2.5-1.1-2.7-2.5h-2.7c-.8 2.3-4.3 3.2-6.2 1.5-1.4-1.3-2.9-1.6-4.6-1.5h-3.6c-1.6-.1-2.9.2-4.2 1.4-2 1.8-5.3 1-6.4-1.3H5.5c-.3 1.5-1.2 2.2-2.8 2.5zm14.2 5.1h-.5v4.5c0 .1.2.4.4.4.1 0 .4-.1.5-.2.4-.5.1-4.1-.4-4.7zm7.6-.2c-.8 1.3-.7 4.1 0 5 .7-.8.7-3.7 0-5z"/><path d="M26.9 13.1c0 3.4-2.8 6.3-6.3 6.3-3.4 0-6.2-2.9-6.2-6.3 0-3.3 2.8-6.2 6.2-6.2 3.5 0 6.3 2.8 6.3 6.2zm-10.2 0c0 2.1 1.7 3.9 3.8 4 2.1.1 4-1.8 4.1-3.9 0-2.1-1.7-3.9-3.8-4-2.2-.1-4 1.7-4.1 3.9z"/><path d="M19 13.2c1-1.1 1.8-1.8 2.6-2.5.1 0 1.1.8 1 .9-.5.9-1.1 1.8-1.8 2.6-.1.1-1-.5-1.8-1z"/></g></svg>