<svg version="1.2" baseProfile="tiny" xmlns="http://www.w3.org/2000/svg" width="72" height="72" viewBox="0 0 72 72" overflow="scroll"><g fill="#76B119"><path d="M0 64.4V6s.1 0 .1-.1C.7 4 2.5 2.7 4.5 2.8h4c.1-1.4.9-2.3 2.2-2.8h19c1.1.5 1.9 1.2 2 2.4 0 .1.4.4.6.4h12.2c.4-1.7.7-2.1 2.2-2.8h14.6c1.2.5 2.1 1.4 2.1 2.8 1.5 0 3-.1 4.4 0 .8.1 1.6.4 2.4.8 1 .5 1.3 1.5 1.8 2.4v58.4c-.4.8-.7 1.7-1.5 2.3-1 .8-2.1 1.1-3.4 1.1h-2.4c.3 1.9-.1 3.4-1.9 4.2h-6.2c-1.9-.8-2.2-2.4-1.9-4.2H17.2c.2 1.8-.1 3.4-1.9 4.2H9.1c-1.8-.8-2.2-2.4-1.9-4.2H5.9c-.9-.1-1.9 0-2.8-.2C1.5 67.2.5 66 0 64.4zm69-44.1H2.9v.5C3 34.9 3 49 3 63.1c0 1.1.5 1.6 1.6 1.6h62.7c1.3 0 1.8-.4 1.8-1.8C69 49 69 35 69 21.1v-.8zm0-3.2V7.7c0-1.3-.3-1.7-1.6-1.9H4.6C3.5 5.8 3 6.4 3 7.6v9.5h66zM10.2 69h4.1v-1.2h-4.1V69zm51.6-1.2h-4.2V69h4.2v-1.2z"/><path d="M7.2 59V25.9h57.6V59H7.2zm3-30.1v27.2h51.7V28.9H10.2zM39 11.5c0 1.6-1.3 2.9-2.9 3-1.7 0-3-1.5-3-3 .1-1.6 1.3-2.9 3-2.9 1.5 0 2.9 1.3 2.9 2.9zM18.7 8.6c1.6 0 2.9 1.3 3 2.9 0 1.5-1.2 3-3 3-1.8-.1-2.9-1.2-2.9-3-.1-1.6 1.3-2.9 2.9-2.9zm-8.6 0c1.9 0 2.8 1.4 2.9 2.9.1 1.5-1.4 3-2.9 3-1.6 0-3-1.5-3-3 0-1.7 1.6-3 3-2.9zm54.7 2.9c.2 1.4-1.3 3-2.9 3-1.5 0-3-1.5-2.9-3 .1-1.5 1-2.9 2.9-2.9 1.4 0 3.1 1.2 2.9 2.9zm-40.3 0c-.2-1.5 1.2-3 3-3 1.5 0 2.9 1.2 2.9 2.9-.1 1.9-1.1 2.9-2.9 3-1.6.2-3.2-1.2-3-2.9z"/></g></svg>