<svg version="1.2" baseProfile="tiny" xmlns="http://www.w3.org/2000/svg" width="72" height="72" viewBox="0 0 72 72" overflow="scroll"><g fill="#76B119"><path d="M44.5 49c-13.3 10.4-30.2 6-38.4-4.2-8.8-11-8-26.7 1.9-36.7 9.6-9.7 24.4-10.7 35.1-3.2 6.5 4.5 10.3 10.7 11.5 18.5 1.2 7.8-.9 14.8-5.6 21.2.8.7 1.5 1.5 2.2 2.2.1.1.4.1.5.1 2.3-.9 4.3-.4 6 1.3 4.1 4.1 8.2 8.2 12.3 12.2 2.5 2.5 2.5 5.5 0 8l-2.1 2.1c-2.2 2.1-5.2 2.1-7.4 0-4.3-4.3-8.5-8.6-12.8-12.9-1.6-1.6-1.9-3.5-1.2-5.6.1-.2 0-.5-.1-.7-.4-.8-1.2-1.5-1.9-2.3zM5.1 27.5c0 12.4 10.1 22.4 22.4 22.4 12.3 0 22.4-10 22.4-22.4 0-12.4-9.9-22.4-22.4-22.4C15 5.1 5 15.2 5.1 27.5z"/><path d="M13.3 20.6c0 6 2 11 6.3 15.1 4.3 4 9.5 5.7 15.4 5.3-3.8 3.2-12 4.4-18.2-.6-6.5-5.2-7.2-14.1-3.5-19.8z"/></g></svg>