<svg version="1.2" baseProfile="tiny" xmlns="http://www.w3.org/2000/svg" width="63.5" height="68.8" viewBox="0 0 63.5 68.8" overflow="scroll"><path fill="#76B119" d="M34.9 0h2.2c1.5.4 3 .7 4.5 1.2 1.1.4 2 1.1 2.8 1.9 1.3 1.4 2.2 3 2.6 4.9 1 4.3.8 8.5-1.1 12.5-.1.2-.1.4-.2.6h7c4.3 0 7.6 2 9.6 5.7s1.5 7.5-.5 11.1c-.2.3-.2.7-.2 1 .6 2.7.2 5.3-1 7.7-.2.4-.3.8-.2 1.2.2 2.9-.4 5.6-2 8-.3.4-.4.8-.4 1.3 0 1.5-.3 3-.8 4.4-1.4 3.4-3.9 5.5-7.3 6.6-1 .3-2.1.5-3.1.7h-9c-.2 0-.4-.1-.6-.1-2.2-.2-4.4-.6-6.5-1.2-3.4-1-6.8-2.1-10.2-3.2-1.6-.5-3.3-.9-5-.8-3.2.1-6.4 0-9.6 0-.6 0-1.1 0-1.7-.2-2.5-.6-4-2.7-4-5.3V31.9c0-.8.2-1.7.5-2.4 1-2 2.7-3 5-3h10.6c.3 0 .6-.1.8-.3 1.3-1.4 2.6-2.8 3.8-4.2 1.8-2.1 3.5-4.3 5.3-6.4 1.1-1.2 1.7-2.6 2.1-4.2.5-2.1 1-4.2 1.6-6.3.5-1.6 1.4-3 2.9-4 .6-.5 1.4-.8 2.1-1.1zm20.4 37.1c.3-.2.8-.4 1.1-.8.5-.6.8-1.2 1.1-1.9.6-1.3.8-2.6.4-4-.6-2.2-2.8-4-5.5-4-4.5.1-9 0-13.5 0h-.7c0-1.3.3-2.4.7-3.5l2.4-6c1.1-2.8 1-5.6.1-8.4-.4-1.3-1.2-2.3-2.5-2.7-.9-.3-1.9-.3-2.9-.5-.4-.1-.8.1-.9.5-.3.7-.7 1.4-.9 2.1-.5 1.9-.9 3.9-1.4 5.9-.4 1.6-1.1 3.1-2.2 4.4-1.5 1.7-2.9 3.5-4.3 5.2-1.8 2.3-3.5 4.6-5.7 6.5-1.2 1-2.4 1.9-4.1 1.8-.7 0-.7 0-.7.7v25.8h.6c1.5 0 2.9.2 4.3.6 2.1.7 4.1 1.5 6.3 2.1 2.7.8 5.5 1.5 8.2 2.1 3.2.7 6.4.4 9.6.4 1 0 2-.1 2.9-.3 2.4-.5 4-1.9 4.6-4.4.3-1.3.3-2.7.1-4 0-.2.1-.5.2-.6 1.9-1.2 3.1-4.8 1.9-7.4-.2-.4-.1-.7.2-1 1.5-1.7 2.1-3.7 1.6-5.8-.2-1-.6-1.9-1-2.8zM10.6 55.6c0-1.4-1.2-2.7-2.6-2.7-1.4 0-2.7 1.2-2.6 2.7 0 1.4 1.3 2.7 2.7 2.6 1.3 0 2.5-1.2 2.5-2.6z"/></svg>